<svg xmlns="http://www.w3.org/2000/svg" xmlns:xlink="http://www.w3.org/1999/xlink" viewBox="0 0 32 32"><defs><style>.cls-1,.cls-4,.cls-7{fill:none;}.cls-2{clip-path:url(#clip-path);}.cls-3{fill:#6f7688;}.cls-4{stroke:#706877;stroke-width:0.5px;}.cls-5{fill:#21b1e1;}.cls-6{fill:#31353e;}.cls-7{stroke:#31353e;}</style><clipPath id="clip-path" transform="translate(0)"><rect class="cls-1" width="32" height="32"/></clipPath></defs><title>Asset 14</title><g id="Layer_2" data-name="Layer 2"><g id="Layer_1-2" data-name="Layer 1"><g class="cls-2"><rect class="cls-3" x="0.25" y="0.25" width="31.5" height="31.5" rx="1.17"/><rect class="cls-4" x="0.25" y="0.25" width="31.5" height="31.5" rx="1.17"/><path class="cls-5" d="M6.49,21a3.33,3.33,0,1,0-3.06-3.58A3.33,3.33,0,0,0,6.49,21" transform="translate(0)"/><path class="cls-6" d="M22.36,6.82a1.64,1.64,0,0,0,.26-3.27,1.64,1.64,0,1,0-.26,3.27" transform="translate(0)"/><path class="cls-6" d="M26.64,17.56a1.64,1.64,0,1,0-1.5-1.76,1.64,1.64,0,0,0,1.5,1.76" transform="translate(0)"/></g><line class="cls-7" x1="10.38" y1="13.8" x2="17.29" y2="9.23"/><line class="cls-7" x1="11.75" y1="17.05" x2="22.26" y2="16.41"/><line class="cls-7" x1="10.93" y1="21.1" x2="17.24" y2="24.67"/><polygon class="cls-6" points="23.76 16.24 19.61 14.53 19.85 18.45 23.76 16.24"/><polygon class="cls-6" points="20.38 26.15 17.64 22.6 15.89 26.1 20.38 26.15"/><polygon class="cls-6" points="20.52 6.83 16.08 7.5 18.3 10.73 20.52 6.83"/><g class="cls-2"><path class="cls-6" d="M22.76,28.93a1.65,1.65,0,1,0-1.5-1.77,1.65,1.65,0,0,0,1.5,1.77" transform="translate(0)"/></g></g></g></svg>