<?xml version="1.0" encoding="UTF-8" standalone="no"?>
<!-- Created with Inkscape (http://www.inkscape.org/) -->

<svg
   xmlns:dc="http://purl.org/dc/elements/1.1/"
   xmlns:cc="http://creativecommons.org/ns#"
   xmlns:rdf="http://www.w3.org/1999/02/22-rdf-syntax-ns#"
   xmlns:svg="http://www.w3.org/2000/svg"
   xmlns="http://www.w3.org/2000/svg"
   xmlns:sodipodi="http://sodipodi.sourceforge.net/DTD/sodipodi-0.dtd"
   xmlns:inkscape="http://www.inkscape.org/namespaces/inkscape"
   width="8.4666662mm"
   height="8.4666662mm"
   viewBox="0 0 8.4666662 8.4666662"
   version="1.1"
   id="svg2548"
   inkscape:version="0.92.4 (5da689c313, 2019-01-14)"
   sodipodi:docname="icon-flows-to-active.svg">
  <defs
     id="defs2542">
    <clipPath
       transform="translate(0)"
       id="clip-path">
      <rect
         y="0"
         x="0"
         id="rect915"
         height="32"
         width="32"
         class="cls-1" />
    </clipPath>
    <clipPath
       transform="translate(0)"
       id="clipPath2522">
      <rect
         y="0"
         x="0"
         id="rect2520"
         height="32"
         width="32"
         class="cls-1" />
    </clipPath>
  </defs>
  <sodipodi:namedview
     id="base"
     pagecolor="#ffffff"
     bordercolor="#666666"
     borderopacity="1.0"
     inkscape:pageopacity="0.0"
     inkscape:pageshadow="2"
     inkscape:zoom="3.959798"
     inkscape:cx="36.877765"
     inkscape:cy="11.354741"
     inkscape:document-units="mm"
     inkscape:current-layer="layer1"
     showgrid="false"
     inkscape:window-width="1366"
     inkscape:window-height="727"
     inkscape:window-x="0"
     inkscape:window-y="20"
     inkscape:window-maximized="0" />
  <metadata
     id="metadata2545">
    <rdf:RDF>
      <cc:Work
         rdf:about="">
        <dc:format>image/svg+xml</dc:format>
        <dc:type
           rdf:resource="http://purl.org/dc/dcmitype/StillImage" />
        <dc:title></dc:title>
      </cc:Work>
    </rdf:RDF>
  </metadata>
  <g
     inkscape:label="Layer 1"
     inkscape:groupmode="layer"
     id="layer1"
     transform="translate(-57.754762,-135.52857)">
    <g
       id="g2489"
       transform="translate(46.113096,79.375004)">
      <g
         transform="matrix(0.26458333,0,0,0.26458333,11.641666,56.153567)"
         class="cls-2"
         clip-path="url(#clip-path)"
         id="g1121">
        <rect
           style="fill:#eeeef0"
           class="cls-3"
           x="0.25"
           y="0.25"
           width="31.5"
           height="31.5"
           rx="1.17"
           id="rect1111" />
        <rect
           style="fill:none;stroke:#6f8d9c;stroke-width:0.5px"
           class="cls-4"
           x="0.25"
           y="0.25"
           width="31.5"
           height="31.5"
           rx="1.17"
           id="rect1113" />
        <path
           style="fill:#31353e"
           inkscape:connector-curvature="0"
           class="cls-5"
           d="M 4.36,19.15 A 1.64,1.64 0 1 0 2.85,17.38 1.64,1.64 0 0 0 4.36,19.15"
           id="path1115" />
        <path
           style="fill:#21b1e1"
           inkscape:connector-curvature="0"
           class="cls-6"
           d="M 20.36,8 A 3.33,3.33 0 1 0 17.31,4.42 3.31,3.31 0 0 0 20.36,8"
           id="path1117" />
        <path
           style="fill:#21b1e1"
           inkscape:connector-curvature="0"
           class="cls-6"
           d="M 24.79,19.56 A 3.33,3.33 0 1 0 21.73,16 a 3.34,3.34 0 0 0 3.06,3.58"
           id="path1119" />
      </g>
      <g
         transform="rotate(-180,15.419864,60.587418)"
         id="g2398">
        <line
           id="line1123"
           y2="60.49538"
           x2="16.615833"
           y1="60.664711"
           x1="13.835062"
           class="cls-7"
           style="fill:none;stroke:#31353e;stroke-width:0.26458332" />
        <polygon
           id="polygon1125"
           points="16.15,14.53 16.39,18.45 20.3,16.24 "
           class="cls-5"
           style="fill:#31353e"
           transform="matrix(0.26458333,0,0,0.26458333,11.641666,56.153567)" />
      </g>
      <g
         transform="rotate(-180,14.835688,62.346777)"
         id="g2402">
        <line
           id="line1127"
           y2="62.68084"
           x2="15.287624"
           y1="61.736275"
           x1="13.618103"
           class="cls-7"
           style="fill:none;stroke:#31353e;stroke-width:0.26458332" />
        <polygon
           id="polygon1129"
           points="14.18,22.6 12.43,26.1 16.92,26.15 "
           class="cls-5"
           style="fill:#31353e"
           transform="matrix(0.26458333,0,0,0.26458333,11.641666,56.153567)" />
      </g>
      <g
         transform="rotate(-180,14.777532,58.937916)"
         id="g2394">
        <line
           id="line1131"
           y2="58.595673"
           x2="15.300854"
           y1="59.804817"
           x1="13.472583"
           class="cls-7"
           style="fill:none;stroke:#31353e;stroke-width:0.26458332" />
        <polygon
           id="polygon1133"
           points="12.62,7.5 14.85,10.73 17.06,6.83 "
           class="cls-5"
           style="fill:#31353e"
           transform="matrix(0.26458333,0,0,0.26458333,11.641666,56.153567)" />
      </g>
      <g
         transform="matrix(0.26458333,0,0,0.26458333,11.641666,56.153567)"
         class="cls-2"
         clip-path="url(#clip-path)"
         id="g1137">
        <path
           style="fill:#21b1e1"
           inkscape:connector-curvature="0"
           class="cls-6"
           d="m 21,30.38 a 3.33,3.33 0 1 0 -3,-3.58 3.31,3.31 0 0 0 3,3.58"
           id="path1135" />
      </g>
    </g>
  </g>
</svg>
